<mxfile host="app.diagrams.net" modified="2023-10-19T07:00:22.327Z" agent="Mozilla/5.0 (Linux; Android 12; V2029; wv) AppleWebKit/537.36 (KHTML, like Gecko) Version/4.0 Chrome/87.0.4280.141 Mobile Safari/537.36 VivoBrowser/11.0.0.4" version="22.0.5" etag="51UF3PBQvxcdL7_ByEIC" type="github">
  <diagram name="Halaman-1" id="B4mq0KtiZXBOmZA7poP6">
    <mxGraphModel>
      <root>
        <mxCell id="0" />
        <mxCell id="1" parent="0" />
      </root>
    </mxGraphModel>
  </diagram>
</mxfile>
